<svg xmlns="http://www.w3.org/2000/svg" xmlns:svg="http://www.w3.org/2000/svg" xmlns:xlink="http://www.w3.org/1999/xlink" id="svg4830" width="32" height="32" version="1.1"><defs id="defs4832"><linearGradient id="linearGradient4148"><stop id="stop4150" offset="0" style="stop-color:#fefefe;stop-opacity:1"/><stop id="stop4152" offset="1" style="stop-color:#b7b7b7;stop-opacity:1"/></linearGradient><radialGradient id="radialGradient4178" cx="123.21" cy="31.692" r="5.062" fx="123.21" fy="31.692" gradientTransform="matrix(-0.46939348,1.1534553,-1.6669092,-0.65875753,232.55941,-95.016875)" gradientUnits="userSpaceOnUse" xlink:href="#linearGradient4148"/><linearGradient id="linearGradient4192" x1="122.702" x2="122.702" y1="21.297" y2="23.716" gradientTransform="matrix(1.1884484,0,0,1.1623786,-23.490346,-4.5062279)" gradientUnits="userSpaceOnUse" xlink:href="#linearGradient4148"/></defs><metadata id="metadata4835"/><g id="layer1"><g id="g4770" transform="matrix(1.7777778,0,0,1.7777778,-205.48441,-31.997877)"><path style="fill:url(#radialGradient4178);fill-opacity:1;fill-rule:evenodd;stroke:#6f6f6f;stroke-width:.55365163;stroke-linecap:butt;stroke-linejoin:miter;stroke-miterlimit:4;stroke-dasharray:none;stroke-opacity:1" id="path4166" d="m 124.62037,24.687632 c 0,0 1.56509,-1.221355 3.24673,-0.998084 1.41387,0.187723 2.42599,1.354844 2.65597,2.732135 0.51367,3.076372 -1.71325,6.112003 -3.05024,6.765843 -1.337,0.653837 -3.03156,-0.0523 -3.03156,-0.0523 0,0 -1.31917,0.638968 -2.54837,-0.0353 -2.59302,-1.422354 -3.63535,-4.253661 -3.02041,-7.098538 0.23048,-1.066163 1.32524,-2.110224 2.4234,-2.294208 1.58382,-0.265344 3.32448,0.980437 3.32448,0.980437 z"/><path style="fill:#a6a6a6;fill-opacity:1;fill-rule:evenodd;stroke:#6f6f6f;stroke-width:.55365163;stroke-linecap:butt;stroke-linejoin:miter;stroke-miterlimit:4;stroke-dasharray:none;stroke-opacity:1" id="path4168" d="m 125.10977,21.81562 c 0,0 -0.37746,0.714398 -0.45955,1.103312 -0.12333,0.584263 -0.0373,1.789392 -0.0373,1.789392 0,0 0.30552,-1.065063 0.49686,-1.585027 0.18804,-0.51099 0.63865,-1.504742 0.63865,-1.504742 z"/><path style="fill:url(#linearGradient4192);fill-opacity:1;fill-rule:evenodd;stroke:#6f6f6f;stroke-width:.55365163;stroke-linecap:butt;stroke-linejoin:miter;stroke-miterlimit:4;stroke-dasharray:none;stroke-opacity:1" id="path4170" d="m 119.40356,20.624724 c 0,0 0.99163,0.790528 1.54792,1.092725 1.19668,0.650083 3.80009,1.522627 3.80009,1.522627 0,0 -1.9961,-2.15342 -3.3425,-2.615352 -0.63082,-0.216425 -2.00551,0 -2.00551,0 z"/></g></g></svg>