<svg xmlns="http://www.w3.org/2000/svg" xmlns:svg="http://www.w3.org/2000/svg" id="svg4830" width="24" height="24" version="1.1"><metadata id="metadata4835"/><g id="layer1" transform="translate(0,-8)"><g id="g4770" transform="matrix(1.7777778,0,0,1.7777778,-205.48441,-31.997877)"><path style="stroke-width:.02762278;fill:#fff;fill-opacity:1" id="Icon_3_" d="m 121.54264,23.061306 c -1.29654,0 -2.35766,1.061245 -2.35766,2.357666 v 4.94165 l 0.8844,-0.349365 v -4.592285 c 0,-0.824955 0.64832,-1.473267 1.47326,-1.473267 0.82493,0 1.47217,0.648312 1.47217,1.473267 v 2.302734 l 0.8844,-0.349365 v -1.953369 c 0,-1.296421 -1.06,-2.357666 -2.35657,-2.357666 z m 3.24097,2.6521 v 1.308471 l 0.8833,-0.348266 v -0.960205 z m -3.83093,0.8833 v 3.065186 l 0.8844,-0.349366 v -2.71582 z m 4.71423,2.496094 -0.8833,0.349365 v 2.753174 c 0,1.296558 -1.0611,2.356567 -2.35766,2.356567 -1.21907,0 -2.21717,-0.940492 -2.3335,-2.130249 l -0.85584,0.33838 c 0.26581,1.524958 1.58534,2.676269 3.18934,2.676269 1.79719,0 3.24096,-1.443745 3.24096,-3.240967 z m -1.7677,0.698731 -0.8844,0.350464 v 2.053344 c 0,0.323986 -0.26487,0.588867 -0.58886,0.588867 -0.32399,0 -0.58887,-0.264881 -0.58887,-0.588867 v -0.463623 l -0.8844,0.349365 v 0.114258 c 2e-5,0.824927 0.64832,1.473267 1.47327,1.473267 0.82496,0 1.47326,-0.64834 1.47326,-1.473267 z"/></g></g></svg>