<svg xmlns="http://www.w3.org/2000/svg" xmlns:svg="http://www.w3.org/2000/svg" id="svg2" width="24" height="24" version="1.1" viewBox="0 0 24 24" xml:space="preserve"><metadata id="metadata8"/><g id="layer4" style="display:inline" transform="translate(0,-169.5)"><path style="fill:#fff;fill-opacity:1" id="path4860" d="M 5 2 C 3.9 2 3 2.9 3 4 L 3 17 L 4.1289062 17 C 4.2851313 16.264596 4.5812075 15.561581 5 14.9375 L 5 4 L 15 4 L 15 2 L 5 2 z M 9 6 C 7.9 6 7 6.9 7 8 L 7 13.111328 C 7.6195182 12.769775 8.2992947 12.542892 9 12.441406 L 9 8 L 18 8 L 18 14.90625 L 20 14.90625 L 20 8 C 20 6.9 19.1 6 18 6 L 9 6 z M 9.8125 14.375 C 8.7596432 14.375 7.861473 14.747902 7.1171875 15.492188 C 6.372902 16.236473 6 17.134643 6 18.1875 C 6 19.240357 6.372902 20.138527 7.1171875 20.882812 C 7.861473 21.627098 8.7596432 22 9.8125 22 C 10.646785 22 11.391161 21.767924 12.046875 21.300781 C 12.702589 20.835067 13.159397 20.223035 13.417969 19.46875 L 16.1875 19.46875 L 16.1875 21.998047 L 18.71875 21.998047 L 18.71875 19.466797 L 20 19.466797 L 20 16.90625 L 13.417969 16.90625 C 13.159397 16.151965 12.702589 15.541361 12.046875 15.074219 C 11.391161 14.607076 10.646785 14.375 9.8125 14.375 z M 9.8125 16.904297 C 10.151071 16.904297 10.44846 17.032444 10.707031 17.291016 C 10.965603 17.549587 11.09375 17.848404 11.09375 18.185547 C 11.09375 18.524118 10.965603 18.821507 10.707031 19.080078 C 10.44846 19.338649 10.149643 19.466797 9.8125 19.466797 C 9.4753572 19.466797 9.1821651 19.338649 8.9335938 19.080078 C 8.6850224 18.821507 8.5605469 18.52269 8.5605469 18.185547 C 8.5605469 17.846976 8.6850224 17.549587 8.9335938 17.291016 C 9.1821651 17.032444 9.4753572 16.904297 9.8125 16.904297 z" transform="translate(0,169.5)"/></g></svg>