<svg xmlns="http://www.w3.org/2000/svg" xmlns:svg="http://www.w3.org/2000/svg" id="svg4830" width="24" height="24" version="1.1"><metadata id="metadata4835"/><g id="layer1" transform="translate(0,-8)"><g id="g4770" transform="matrix(1.7777778,0,0,1.7777778,-205.48441,-31.997877)"><path style="fill:#fff;fill-opacity:1;stroke:none;stroke-width:.99630105px;stroke-linecap:butt;stroke-linejoin:miter;stroke-opacity:1" id="path830" d="M 10,4 C 10,4 3.4004241,12.16731 4.0449219,16 4.4765841,18.566843 7.4158222,21 10,21 12.584196,21 15.523434,18.566843 15.955078,16 16.599576,12.16731 10,4 10,4 Z m 4,0 c 0,0 -0.59708,0.7527282 -1.386719,1.8476562 0.462543,0.6601114 0.953468,1.3798579 1.455078,2.1855469 0.803823,1.2911023 1.594188,2.7131219 2.15625,4.1015629 0.562116,1.388441 0.935799,2.740544 0.71875,4.03125 -0.268817,1.598597 -1.257809,3.011777 -2.517578,4.064453 -0.31833,0.265996 -0.657402,0.509805 -1.009765,0.726562 C 13.611687,20.98319 13.807101,21 14,21 16.584196,21 19.523434,18.566843 19.955078,16 20.599576,12.16731 14,4 14,4 Z m -4,2.5 c 0,0 0.497912,0.6283173 1.144531,1.53125 C 9.4508061,10.655343 7.697485,13.933867 8.0449219,16 8.262611,17.29447 9.126046,18.542028 10.253906,19.470703 10.169439,19.477241 10.083657,19.5 10,19.5 8.0238755,19.5 5.7754103,17.638661 5.4453125,15.675781 4.9524592,12.744903 10,6.5 10,6.5 Z" transform="matrix(0.56249999,0,0,0.56249999,115.58498,22.498806)"/></g></g></svg>