<svg xmlns="http://www.w3.org/2000/svg" xmlns:svg="http://www.w3.org/2000/svg" id="svg4830" width="24" height="24" version="1.1"><metadata id="metadata4835"/><g id="layer1" transform="translate(0,-8)"><g id="g4770" transform="matrix(1.7777778,0,0,1.7777778,-205.48441,-31.997877)"><path style="fill:#fff;fill-opacity:1;stroke:none;stroke-width:.99630105px;stroke-linecap:butt;stroke-linejoin:miter;stroke-opacity:1" id="path820" d="M 10,4 C 10,4 3.4004241,12.16731 4.0449219,16 4.4765841,18.566843 7.4158222,21 10,21 12.584196,21 15.523434,18.566843 15.955078,16 16.599576,12.16731 10,4 10,4 Z m 4,0 c 0,0 -0.597156,0.7527282 -1.386719,1.8476562 0.284669,0.4062608 0.575588,0.8441093 0.882813,1.3125 C 13.714676,6.8748215 14,6.5 14,6.5 c 0,0 5.04754,6.244903 4.554688,9.175781 -0.249068,1.481044 -1.591665,2.900275 -3.083985,3.509766 -0.31745,0.376905 -0.666337,0.728573 -1.044922,1.044922 -0.31833,0.265996 -0.657402,0.509805 -1.009765,0.726562 C 13.61168,20.98319 13.807101,21 14,21 16.584196,21 19.523434,18.566843 19.955078,16 20.599576,12.16731 14,4 14,4 Z" transform="matrix(0.56249999,0,0,0.56249999,115.58498,22.498806)"/></g></g></svg>