<svg xmlns="http://www.w3.org/2000/svg" xmlns:svg="http://www.w3.org/2000/svg" id="svg4830" width="48" height="48" version="1.1"><metadata id="metadata4835"/><g id="layer1" transform="translate(0,16)"><g id="g4770" transform="matrix(1.7777778,0,0,1.7777778,-205.48441,-31.997877)"><g id="g824" transform="matrix(0.02410714,0,0,0.02410714,116.939,11.007737)" style="fill:#fff;fill-opacity:1"><path style="fill:#fff;fill-opacity:1;stroke-width:.04285714" id="path822" d="M 23.835938,5.7167969 C 13.70451,5.7167969 5,9.3383264 5,13.855469 c 0,4.512856 8.70451,8.167969 18.835938,8.167969 10.135713,0 18.835937,-3.655113 18.835937,-8.167969 0,-4.5171426 -8.700224,-8.1386721 -18.835937,-8.1386721 z M 42.671875,18.09375 c 0,4.517142 -8.700224,8.171875 -18.835937,8.171875 C 13.70451,26.265625 5,22.610513 5,18.097656 v 6.248047 c 0,4.512857 8.70451,8.167969 18.835938,8.167969 10.135713,0 18.835937,-3.655112 18.835937,-8.167969 z M 5,28.582031 v 6.25 C 5,39.344888 13.70451,43 23.835938,43 33.971651,43 42.671875,39.344888 42.671875,34.832031 v -6.25 c 0,4.517143 -8.700224,8.169922 -18.835937,8.169922 C 13.70451,36.751953 5,33.094888 5,28.582031 Z" transform="matrix(23.333336,0,0,23.333336,-56.166796,-83.333456)"/></g></g></g></svg>