<svg xmlns="http://www.w3.org/2000/svg" xmlns:svg="http://www.w3.org/2000/svg" id="svg2" width="24" height="24" version="1.1" viewBox="0 0 24 24" xml:space="preserve"><metadata id="metadata8"/><g id="layer4" style="display:inline" transform="translate(0,-169.5)"><path style="fill:#fff;fill-opacity:1;stroke:none;stroke-width:3.60014629;stroke-miterlimit:4;stroke-dasharray:none;stroke-dashoffset:0;stroke-opacity:1" id="path4524" d="M 12 3 A 9 9 0 0 0 8.21875 3.84375 L 9.2226562 5.5839844 A 7 7 0 0 1 12 5 A 7 7 0 0 1 19 12 A 7 7 0 0 1 18.728516 13.90625 L 20.785156 13.90625 A 9 9 0 0 0 21 12 A 9 9 0 0 0 12 3 z M 6.5097656 4.8828125 A 9 9 0 0 0 3 12 A 9 9 0 0 0 4.0820312 16.273438 C 4.2366214 15.324774 4.6246965 14.418539 5.2070312 13.654297 A 7 7 0 0 1 5 12 A 7 7 0 0 1 7.5195312 6.6308594 L 6.5097656 4.8828125 z" transform="translate(0,169.5)"/><g id="g4824" transform="matrix(0.01428571,0,0,0.01428571,-14.142857,179.54429)" style="stroke:none;stroke-width:280.00009155;stroke-miterlimit:4;stroke-dasharray:none"><path style="fill:#fff;fill-opacity:1;stroke:none;stroke-width:280.00009155;stroke-miterlimit:4;stroke-dasharray:none;stroke-opacity:1" id="path4836" d="m 1676.9004,589.6 c 23.6,0 44.5,-9 62.6,-27.1 18.1,-18.1 27.1,-38.9 27.1,-62.6 0,-23.6 -9,-44.5 -27.1,-62.6 -18.1,-18.1 -38.9,-27.1 -62.6,-27.1 -23.6,0 -44.1,9 -61.5,27.1 -17.4,18.1 -26.1,38.9 -26.1,62.6 0,23.6 8.7,44.5 26.1,62.6 17.4,18.1 37.9,27.1 61.5,27.1 z m 252.3,-179.3 h 460.8 v 179.3 h -89.7 v 177.2 h -177.2 V 589.7 h -193.9 c -18.1,52.8 -50,95.6 -95.9,128.2 -45.9,32.7 -98,49 -156.4,49 -73.7,0 -136.6,-26.1 -188.7,-78.2 -52.1,-52.1 -78.2,-115 -78.2,-188.7 0,-73.7 26.1,-136.6 78.2,-188.7 52.1,-52.1 115,-78.2 188.7,-78.2 58.4,0 110.5,16.3 156.4,49 45.9,32.7 77.8,75.4 95.9,128.2 z"/></g></g></svg>