<svg xmlns="http://www.w3.org/2000/svg" xmlns:svg="http://www.w3.org/2000/svg" id="svg2" width="24" height="24" version="1.1" viewBox="0 0 24 24" xml:space="preserve"><metadata id="metadata8"/><g id="layer4" style="display:inline" transform="translate(0,-169.5)"><path style="stroke-width:.02143062;fill:#fff;fill-opacity:1" id="path4566" d="M 12 2 C 9.592834 2 7.5684489 3.7254014 7.1015625 6 L 9.0839844 6 C 9.5058542 4.7867337 10.652056 3.8984375 12.001953 3.8984375 C 13.70139 3.8984375 15.103516 5.2984 15.103516 7 L 15.103516 9 L 6 9 C 4.9006164 9 4 9.8986566 4 10.998047 L 4 14 L 4.9589844 14 C 5.1749868 13.669015 5.4230196 13.358232 5.703125 13.078125 C 6.780379 12.000875 8.287459 11.375 9.8125 11.375 C 11.018931 11.375 12.224623 11.745422 13.207031 12.445312 C 13.763824 12.841985 14.247164 13.34112 14.630859 13.90625 L 20 13.90625 L 20 11 C 20 9.9006 19.099383 9.0019531 18 9.0019531 L 17 9.0019531 L 17 7.0019531 C 17 4.2502431 14.749531 2 12 2 z M 9.8125 13.375 C 8.7596432 13.375 7.861473 13.747902 7.1171875 14.492188 C 6.372902 15.236473 6 16.134643 6 17.1875 C 6 18.240357 6.372902 19.138527 7.1171875 19.882812 C 7.861473 20.627098 8.7596432 21 9.8125 21 C 10.646785 21 11.391161 20.767924 12.046875 20.300781 C 12.702589 19.835067 13.159397 19.223035 13.417969 18.46875 L 16.1875 18.46875 L 16.1875 20.998047 L 18.71875 20.998047 L 18.71875 18.466797 L 20 18.466797 L 20 15.90625 L 13.417969 15.90625 C 13.159397 15.151965 12.702589 14.541361 12.046875 14.074219 C 11.391161 13.607076 10.646785 13.375 9.8125 13.375 z M 9.8125 15.904297 C 10.151071 15.904297 10.44846 16.032444 10.707031 16.291016 C 10.965603 16.549587 11.09375 16.848404 11.09375 17.185547 C 11.09375 17.524118 10.965603 17.821507 10.707031 18.080078 C 10.44846 18.338649 10.149643 18.466797 9.8125 18.466797 C 9.4753572 18.466797 9.1821651 18.338649 8.9335938 18.080078 C 8.6850224 17.821507 8.5605469 17.52269 8.5605469 17.185547 C 8.5605469 16.846976 8.6850224 16.549587 8.9335938 16.291016 C 9.1821651 16.032444 9.4753572 15.904297 9.8125 15.904297 z" transform="translate(0,169.5)"/></g></svg>