<svg xmlns="http://www.w3.org/2000/svg" xmlns:svg="http://www.w3.org/2000/svg" id="svg4830" width="24" height="24" version="1.1"><metadata id="metadata4835"/><g id="layer1" transform="translate(0,-8)"><g id="g4770" transform="matrix(1.7777778,0,0,1.7777778,-205.48441,-31.997877)"><path style="fill:#fff;fill-opacity:1;stroke-width:1.01553178" id="path4" d="M 16.566406,5.0078125 C 15.782726,5.1133592 15.352352,5.8416456 14.802734,6.3261719 14.631179,6.503043 14.326338,6.6788074 14.664062,6.8554688 L 17.339844,9.53125 C 17.821017,9.0226367 18.368011,8.5699819 18.791016,8.0117188 19.125433,7.5187285 19.054409,6.8047721 18.564453,6.4453125 18.109555,6.0127792 17.694742,5.5314578 17.210938,5.1328125 17.01828,5.0182169 16.787242,4.9827103 16.566406,5.0078125 Z M 13.449219,7.6777344 C 10.851548,10.276042 8.2539034,12.874349 5.65625,15.472656 5.4423833,16.493124 5.1885689,17.506656 5,18.53125 c 0.019556,0.598212 0.681759,0.466668 1.0722656,0.351562 0.8179378,-0.179027 1.6351872,-0.358083 2.453125,-0.537109 2.5983114,-2.598958 5.1966104,-5.197918 7.7949214,-7.796875 z" transform="matrix(0.56249999,0,0,0.56249999,115.58498,22.498806)"/></g></g></svg>