<svg xmlns="http://www.w3.org/2000/svg" xmlns:svg="http://www.w3.org/2000/svg" id="svg4830" width="24" height="24" version="1.1"><metadata id="metadata4835"/><g id="layer1" transform="translate(0,-8)"><g id="g4770" transform="matrix(1.7777778,0,0,1.7777778,-205.48441,-31.997877)"><path style="fill:#fff;fill-opacity:1;stroke-width:1.01553178" id="path4" d="M 16.566406 5.0078125 C 16.256202 5.0423192 15.932855 5.1941211 15.669922 5.4570312 L 14.46875 6.6601562 L 17.339844 9.53125 L 18.542969 8.3300781 C 18.895877 7.9770126 19.030492 7.5200648 18.966797 7.1269531 C 18.396436 6.3122027 17.687797 5.6035638 16.873047 5.0332031 C 16.772829 5.0168634 16.672741 4.995984 16.566406 5.0078125 z M 13.449219 7.6777344 L 11.978516 9.1503906 L 14.849609 12.021484 L 16.320312 10.548828 L 13.449219 7.6777344 z M 9.1484375 11.980469 L 5.65625 15.472656 L 5.015625 18.390625 C 4.9299361 18.781059 5.2170219 19.069875 5.6074219 18.984375 L 8.5253906 18.345703 L 12.019531 14.851562 L 9.1484375 11.980469 z" transform="matrix(0.56249999,0,0,0.56249999,115.58498,22.498806)"/><path style="fill:#fff;fill-opacity:1;stroke:none;stroke-width:.5625;stroke-miterlimit:4;stroke-dasharray:none;stroke-dashoffset:0;stroke-opacity:1" id="path861" d="m 122.33498,23.061306 a 6.1875016,6.1875005 0 0 0 -6.1875,6.1875 6.1875016,6.1875005 0 0 0 1.6875,4.235229 v -0.860229 -1.057983 a 5.0625,5.0625 0 0 1 -0.5625,-2.317017 5.0625,5.0625 0 0 1 1.11072,-3.156372 l 7.11145,7.11145 a 5.0625,5.0625 0 0 1 -3.15967,1.107422 5.0625,5.0625 0 0 1 -2.29944,-0.5625 h -1.07556 -0.86572 a 6.1875016,6.1875005 0 0 0 4.24072,1.6875 6.1875016,6.1875005 0 0 0 6.1875,-6.1875 6.1875016,6.1875005 0 0 0 -6.1875,-6.1875 z m 0,1.125 a 5.0625,5.0625 0 0 1 5.0625,5.0625 5.0625,5.0625 0 0 1 -1.11072,3.156372 l -7.11145,-7.11145 a 5.0625,5.0625 0 0 1 3.15967,-1.107422 z"/></g></g></svg>