<svg xmlns="http://www.w3.org/2000/svg" xmlns:svg="http://www.w3.org/2000/svg" id="svg4136" width="56" height="56" x="0" y="0" enable-background="new 0 0 1000 1000" version="1.1" viewBox="0 0 56 56" xml:space="preserve"><metadata id="metadata4138">Svg Vector Icons : http://www.onlinewebfonts.com/icon</metadata><g id="g6" transform="matrix(0.05064313,0,0,0.05064313,2.6557147,3.3403349)" style="fill:#bcbcbc;fill-opacity:1"><path style="fill:#bcbcbc;fill-opacity:1" id="path8" d="M 21.595703 3.8476562 C 11.386048 3.8476562 3.1621094 12.071595 3.1621094 22.28125 C 3.1621094 32.490905 11.386048 40.714844 21.595703 40.714844 C 26.133328 40.714844 30.388196 39.01375 33.507812 36.177734 L 34.357422 37.027344 L 34.357422 39.296875 L 48.539062 53.476562 L 52.792969 49.222656 L 38.613281 35.042969 L 36.34375 35.042969 L 35.492188 34.191406 C 38.328203 31.071789 40.03125 26.818874 40.03125 22.28125 C 40.03125 12.071595 31.805358 3.8476563 21.595703 3.8476562 z M 21.595703 9.5195312 C 25.986525 9.5195312 29.830306 11.696766 32.123047 15.037109 L 14.076172 32.601562 C 10.896292 30.2889 8.8339844 26.546969 8.8339844 22.28125 C 8.8339844 15.191212 14.505665 9.5195313 21.595703 9.5195312 z M 34.285156 20.916016 C 34.332046 21.364326 34.357422 21.819751 34.357422 22.28125 C 34.357422 29.371288 28.685741 35.042969 21.595703 35.042969 C 21.017982 35.042969 20.455027 34.990987 19.898438 34.917969 L 34.285156 20.916016 z" transform="matrix(19.746015,0,0,19.746015,-52.439782,-65.958303)"/></g></svg>