<svg xmlns="http://www.w3.org/2000/svg" xmlns:svg="http://www.w3.org/2000/svg" id="svg4" width="24" height="24" version="1.1" viewBox="0 0 24 24"><metadata id="metadata10"/><path style="fill:#fff;fill-opacity:1;stroke:none;stroke-width:2;stroke-linecap:round;stroke-linejoin:round;stroke-miterlimit:4;stroke-dasharray:none;stroke-dashoffset:0;stroke-opacity:1;paint-order:stroke fill markers" id="rect816-3" d="M 6 3 C 5.446 3 5 3.446 5 4 L 5 21 C 5 21.554 5.4966699 22 6 22 L 19 22 C 19.554 22 20 21.554 20 21 L 20 8 L 15 3 L 14 3 L 7 3 L 6 3 z M 14 4 L 15 5 L 18 8 L 19 9 L 15.541016 9 L 16.955078 10.414062 L 14.183594 13.183594 L 12.769531 11.769531 L 15.541016 9 L 14 9 L 14 4 z M 9 9 L 12.955078 12.955078 L 12.910156 13 L 13 13 L 13 16 L 17 16 L 12 21 L 7 16 L 11 16 L 11 13.828125 L 7.5859375 10.414062 L 9 9 z"/></svg>