<svg xmlns="http://www.w3.org/2000/svg" xmlns:svg="http://www.w3.org/2000/svg" id="svg4" width="24" height="24" version="1.1" viewBox="0 0 24 24"><metadata id="metadata10"/><path style="fill:#fff;fill-opacity:1;stroke:none;stroke-width:2;stroke-linecap:round;stroke-linejoin:round;stroke-miterlimit:4;stroke-dasharray:none;stroke-dashoffset:0;stroke-opacity:1;paint-order:stroke fill markers" id="rect907" d="M 3 0 C 2.446 0 2 0.446 2 1 L 2 18 C 2 18.554 2.446 19 3 19 C 3.554 19 4 18.554 4 18 L 4 2 L 14 2 C 14.554 2 15 1.554 15 1 C 15 0.446 14.554 0 14 0 L 3 0 z M 7 4 C 6.446 4 6 4.446 6 5 L 6 22 C 6 22.554 6.49667 23 7 23 L 20 23 C 20.554 23 21 22.554 21 22 L 21 9 L 16 4 L 15 4 L 8 4 L 7 4 z M 15 5 L 16 6 L 19 9 L 20 10 L 15 10 L 15 5 z M 13 11 L 18 16 L 14 16 L 14 21 L 12 21 L 12 16 L 8 16 L 13 11 z"/></svg>